<?xml version="1.0" standalone="no"?>
<!DOCTYPE svg PUBLIC "-//W3C//DTD SVG 20010904//EN"
 "http://www.w3.org/TR/2001/REC-SVG-20010904/DTD/svg10.dtd">
<svg version="1.0" xmlns="http://www.w3.org/2000/svg"
 width="1024.000000pt" height="1024.000000pt" viewBox="0 0 1024.000000 1024.000000"
 preserveAspectRatio="xMidYMid meet">

<g transform="translate(0.000000,1024.000000) scale(0.100000,-0.100000)"
fill="#000000" stroke="none">
<path d="M2660 6466 c-151 -63 -266 -146 -370 -267 -152 -177 -226 -329 -315
-651 -36 -131 -65 -243 -65 -249 0 -6 21 17 47 52 321 438 711 686 1011 642
42 -7 86 -15 97 -18 38 -12 -59 64 -126 100 -126 66 -261 83 -378 46 -35 -11
-64 -15 -67 -10 -9 15 17 120 44 177 25 52 98 136 157 179 38 28 33 28 -35 -1z"/>
<path d="M2730 6370 c-31 -31 -36 -68 -13 -98 42 -56 110 -55 137 3 20 41 13
79 -17 100 -30 21 -83 19 -107 -5z"/>
<path d="M4780 6030 c-214 -37 -336 -141 -370 -316 -8 -40 -10 -150 -8 -339 4
-266 5 -283 27 -339 27 -67 94 -145 156 -181 87 -50 178 -70 330 -69 158 0
232 15 328 67 87 45 152 130 171 222 4 17 7 102 8 190 l2 160 -265 5 c-145 3
-270 9 -278 14 -22 14 -8 -89 16 -122 33 -44 59 -52 186 -52 l117 0 0 -67 c0
-88 -14 -135 -51 -178 -46 -52 -105 -70 -229 -70 -92 0 -112 4 -162 27 -70 32
-110 85 -127 165 -9 40 -12 134 -9 298 3 218 5 244 24 285 25 53 78 103 131
121 63 23 263 18 348 -8 90 -28 157 -71 191 -122 15 -23 28 -41 30 -41 12 0
36 83 37 125 3 118 -103 192 -320 224 -80 12 -215 13 -283 1z"/>
<path d="M8630 5451 l0 -592 25 -23 c27 -25 77 -43 149 -52 l46 -7 0 592 0
592 -24 24 c-25 25 -74 42 -148 52 l-48 6 0 -592z"/>
<path d="M7560 5447 l0 -574 23 -20 c48 -44 66 -48 252 -51 281 -6 414 26 504
119 56 59 75 123 69 238 -5 102 -28 155 -94 217 l-43 41 44 46 c29 31 49 63
60 98 17 60 20 196 5 251 -27 97 -133 174 -269 197 -39 6 -176 11 -310 11
l-241 0 0 -573z m538 390 c57 -31 74 -70 69 -160 -4 -83 -17 -111 -71 -151
-24 -19 -45 -21 -172 -24 l-144 -3 0 174 c0 95 3 177 8 181 4 4 68 6 142 4
105 -3 142 -7 168 -21z m-6 -526 c58 -28 88 -75 95 -149 8 -87 -20 -145 -84
-175 -42 -19 -65 -22 -183 -22 l-135 0 -3 175 c-1 96 0 181 3 189 9 23 251 10
307 -18z"/>
<path d="M2850 5804 c-85 -7 -171 -16 -190 -20 -33 -6 -31 -7 49 -30 312 -91
587 -238 746 -400 122 -124 190 -253 202 -379 3 -37 10 -62 14 -58 21 21 49
163 49 244 0 111 -26 196 -86 285 -50 75 -48 79 24 90 117 18 249 -18 349 -93
l38 -28 -34 43 c-104 134 -299 254 -503 311 -182 51 -365 61 -658 35z"/>
<path d="M1877 5753 c-140 -75 -258 -230 -273 -359 -9 -73 -16 -82 -50 -64
-84 46 -185 190 -200 286 -3 24 -11 47 -16 51 -20 11 -2 -264 21 -347 49 -171
185 -401 317 -536 53 -54 389 -344 398 -344 2 0 -22 51 -54 113 -121 232 -200
471 -221 666 -22 209 27 413 128 531 19 22 31 40 26 40 -4 0 -39 -17 -76 -37z"/>
<path d="M1464 5696 c-58 -49 -20 -146 57 -146 42 0 79 39 79 84 0 26 -7 40
-31 60 -38 32 -70 33 -105 2z"/>
<path d="M5908 5690 c-89 -16 -147 -41 -197 -86 -80 -72 -86 -98 -86 -365 l0
-225 30 -59 c60 -117 176 -169 375 -169 258 0 385 103 328 268 -15 47 -33 56
-42 23 -9 -39 -79 -94 -143 -114 -80 -24 -196 -23 -248 2 -56 28 -85 75 -85
140 0 28 3 54 6 57 3 3 29 0 57 -8 146 -39 335 7 406 98 57 72 68 200 25 286
-33 66 -83 108 -160 131 -73 23 -201 33 -266 21z m170 -164 c49 -25 66 -53 66
-106 0 -55 -14 -77 -61 -97 -38 -15 -180 -18 -217 -3 -23 8 -26 15 -26 60 0
108 50 160 153 160 32 0 70 -6 85 -14z"/>
<path d="M6800 5678 c-103 -20 -170 -18 -232 7 -17 7 -18 -17 -18 -409 l0
-417 26 -24 c30 -28 85 -46 148 -48 l41 -2 5 365 5 365 55 13 c114 27 230 -2
258 -63 8 -18 12 -114 12 -309 0 -267 1 -285 20 -308 24 -31 77 -53 148 -63
l52 -7 0 334 c0 362 -6 409 -54 473 -49 63 -199 117 -321 114 -22 -1 -87 -10
-145 -21z"/>
<path d="M3829 5371 c-40 -40 -39 -81 2 -115 17 -14 42 -26 56 -26 33 0 83 51
83 85 0 35 -50 85 -85 85 -16 0 -38 -12 -56 -29z"/>
<path d="M3417 5048 c-8 -289 -59 -518 -158 -709 -76 -146 -204 -272 -324
-318 -49 -19 -49 -19 -22 -26 69 -18 235 13 331 62 47 24 146 114 179 163 l16
25 20 -23 c65 -75 87 -262 43 -371 -12 -30 -20 -57 -17 -59 5 -5 48 64 84 136
107 210 128 505 57 784 -22 85 -177 492 -196 511 -4 5 -10 -74 -13 -175z"/>
<path d="M1982 5160 c13 -20 24 -20 615 -20 462 0 603 -3 603 -12 0 -9 3 -9
12 0 7 7 26 12 43 12 19 0 39 8 50 20 18 20 17 20 -659 20 -674 0 -676 0 -664
-20z"/>
<path d="M2277 5093 c-10 -9 -9 -151 1 -157 4 -2 64 -14 133 -26 68 -11 150
-25 183 -31 49 -8 81 -6 200 16 225 41 201 27 204 123 l3 82 -359 0 c-197 0
-362 -3 -365 -7z"/>
<path d="M2292 4860 c3 -6 284 -230 338 -268 17 -12 34 0 177 119 87 73 160
134 162 136 17 13 -28 10 -165 -12 l-159 -26 -160 26 c-88 14 -168 27 -178 29
-10 3 -17 1 -15 -4z"/>
<path d="M3201 4831 c-1 -24 2 -32 9 -25 7 7 7 19 1 35 -9 23 -10 22 -10 -10z"/>
<path d="M1740 4545 c-1 -165 113 -361 253 -435 26 -14 47 -28 47 -31 0 -4
-23 -21 -50 -39 -102 -65 -233 -86 -350 -56 -30 8 -56 13 -58 11 -7 -7 144
-73 210 -94 113 -34 261 -47 386 -32 115 13 261 46 358 82 62 23 483 240 484
250 0 3 -28 2 -62 -2 -35 -5 -133 -11 -218 -15 -317 -13 -600 48 -782 169 -66
44 -169 151 -197 205 l-20 37 -1 -50z"/>
<path d="M7630 4526 l0 -46 -39 6 c-34 5 -43 3 -65 -19 -22 -22 -26 -35 -26
-85 0 -92 20 -107 128 -104 l43 2 -3 142 c-3 127 -5 143 -20 146 -15 3 -18 -4
-18 -42z m-11 -80 c7 -9 11 -40 9 -78 -3 -60 -4 -63 -30 -66 -18 -2 -31 4 -42
20 -18 25 -21 90 -6 119 12 22 52 25 69 5z"/>
<path d="M4499 4531 c-28 -28 -29 -34 -29 -116 0 -79 2 -88 25 -109 29 -27 74
-36 123 -25 51 11 75 40 76 91 l1 43 -59 3 c-44 2 -57 0 -54 -10 3 -7 19 -14
36 -16 26 -3 32 -8 32 -27 0 -76 -116 -82 -131 -7 -12 57 -2 145 17 159 25 18
81 16 115 -4 31 -18 43 -15 34 9 -9 23 -51 38 -106 38 -42 0 -55 -5 -80 -29z"/>
<path d="M6000 4545 c-10 -12 -9 -16 5 -21 23 -9 40 10 22 25 -11 9 -17 8 -27
-4z"/>
<path d="M6213 4554 c-10 -4 -13 -40 -13 -129 0 -117 1 -125 22 -136 27 -14
112 -5 144 16 27 18 32 68 10 98 -12 15 -12 22 0 47 17 33 10 76 -15 90 -21
11 -132 21 -148 14z m120 -41 c4 -2 7 -17 7 -33 0 -30 -14 -40 -61 -40 -27 0
-29 3 -29 39 0 22 5 41 13 44 12 5 54 -1 70 -10z m-3 -123 c37 -37 20 -72 -36
-74 -37 -1 -39 1 -42 32 -2 19 -1 40 2 48 8 21 53 17 76 -6z"/>
<path d="M7172 4423 c3 -135 3 -138 26 -141 l23 -3 -3 138 c-3 135 -3 138 -26
141 l-23 3 3 -138z"/>
<path d="M8616 4553 c-13 -14 -5 -33 14 -33 11 0 20 6 20 14 0 15 -24 28 -34
19z"/>
<path d="M4775 4465 c-21 -20 -25 -34 -25 -83 0 -32 6 -66 13 -76 26 -35 129
-38 151 -4 16 26 2 31 -32 11 -25 -14 -34 -15 -56 -5 -16 7 -26 20 -26 32 0
16 7 20 35 20 43 0 75 29 75 69 0 60 -89 83 -135 36z m94 -19 c6 -7 9 -21 5
-30 -7 -18 -47 -32 -63 -21 -12 7 -15 48 -4 58 11 12 50 8 62 -7z"/>
<path d="M5017 4483 l-38 -4 3 -97 c3 -82 6 -97 20 -100 15 -3 18 8 20 85 l3
88 35 0 35 0 3 -65 c3 -85 9 -110 27 -110 12 0 15 18 15 93 0 91 -1 94 -25
105 -14 7 -34 11 -43 10 -9 -1 -34 -3 -55 -5z"/>
<path d="M5222 4474 c-19 -13 -22 -24 -22 -88 0 -57 4 -76 18 -89 29 -26 111
-27 136 -1 25 25 8 35 -29 17 -42 -20 -85 -6 -85 27 0 16 7 20 35 20 41 0 85
36 85 70 0 52 -87 80 -138 44z m96 -46 c3 -22 -2 -29 -22 -34 -34 -8 -56 1
-56 24 0 26 21 43 50 40 19 -2 26 -10 28 -30z"/>
<path d="M5479 4486 c-2 -3 -18 -6 -34 -9 l-30 -4 0 -94 c0 -81 2 -94 18 -97
15 -3 17 5 17 71 0 42 3 82 6 91 7 19 45 21 62 4 16 -16 29 -1 16 20 -11 16
-45 28 -55 18z"/>
<path d="M5600 4483 c-18 -7 -30 -23 -30 -41 0 -10 5 -9 22 2 27 19 72 21 86
3 15 -18 4 -29 -53 -52 -46 -19 -50 -23 -53 -58 -3 -34 0 -39 30 -51 18 -7 54
-11 81 -8 l47 4 0 82 c0 52 -5 89 -13 100 -14 19 -89 31 -117 19z m90 -138 c0
-29 -4 -36 -25 -41 -27 -7 -55 9 -55 32 0 14 45 43 68 44 7 0 12 -13 12 -35z"/>
<path d="M5810 4483 c-38 -13 -53 -70 -26 -92 8 -7 36 -18 63 -24 56 -14 69
-40 29 -58 -21 -10 -32 -9 -53 2 -16 7 -31 15 -35 17 -5 2 -8 -5 -8 -16 0 -45
115 -51 145 -9 33 46 5 90 -63 101 -45 7 -55 16 -46 41 5 13 16 16 43 13 20
-3 44 -8 54 -12 12 -6 17 -4 17 8 0 27 -74 45 -120 29z"/>
<path d="M5992 4388 c3 -95 4 -103 23 -103 18 0 20 8 23 82 3 85 -7 123 -34
123 -12 0 -14 -17 -12 -102z"/>
<path d="M6473 4475 c-13 -9 -23 -23 -23 -31 0 -13 3 -13 22 0 29 20 72 20 88
1 16 -19 12 -24 -52 -49 -54 -22 -65 -37 -54 -81 7 -29 47 -43 109 -37 l47 4
0 82 c0 52 -5 89 -13 100 -19 25 -95 32 -124 11z m95 -132 c-2 -31 -7 -39 -26
-41 -26 -4 -52 13 -52 34 0 14 45 43 68 44 9 0 12 -12 10 -37z"/>
<path d="M6705 4481 l-40 -6 -3 -75 c-4 -94 2 -120 29 -120 19 0 20 5 18 78
-2 43 0 83 5 90 9 15 42 16 51 2 10 -17 25 -11 25 9 0 17 -21 33 -38 30 -4 -1
-25 -5 -47 -8z"/>
<path d="M6830 4402 c0 -114 10 -125 101 -119 l64 5 3 89 c2 70 -1 93 -12 102
-27 23 -36 2 -36 -85 0 -93 -9 -107 -56 -86 -22 11 -24 17 -24 91 0 75 -6 91
-36 91 -2 0 -4 -40 -4 -88z"/>
<path d="M7322 4483 l-43 -4 3 -97 c3 -82 6 -97 20 -100 15 -3 18 8 20 85 l3
88 31 3 c43 4 53 -13 56 -98 2 -62 6 -75 21 -78 15 -3 17 6 17 87 0 82 -2 91
-22 105 -12 9 -32 15 -43 14 -11 -1 -39 -3 -63 -5z"/>
<path d="M7770 4484 c-30 -12 -40 -38 -40 -104 0 -51 4 -70 18 -82 26 -23 68
-30 112 -18 33 9 41 16 49 45 12 45 5 125 -13 143 -15 15 -100 26 -126 16z
m94 -40 c11 -28 6 -120 -6 -132 -17 -17 -54 -15 -72 4 -18 18 -22 95 -6 125
13 24 75 27 84 3z"/>
<path d="M8002 4483 l-43 -4 3 -97 c3 -93 4 -97 26 -100 23 -3 23 -2 22 75 -1
43 -1 84 -1 91 1 16 56 16 69 -1 6 -7 12 -46 14 -87 2 -62 6 -75 21 -78 15 -3
17 6 17 87 0 82 -2 91 -22 105 -12 9 -32 15 -43 14 -11 -1 -39 -3 -63 -5z"/>
<path d="M8205 4465 c-21 -20 -25 -34 -25 -80 0 -31 5 -65 10 -75 22 -41 130
-46 154 -7 16 25 2 30 -32 10 -25 -14 -34 -15 -56 -5 -16 7 -26 20 -26 32 0
16 7 20 33 20 48 0 77 24 77 65 0 64 -86 89 -135 40z m99 -28 c9 -15 7 -21 -9
-33 -39 -29 -78 -2 -61 42 8 21 56 14 70 -9z"/>
<path d="M8414 4465 c-40 -40 -13 -95 46 -95 14 0 35 -6 46 -14 15 -12 17 -18
8 -33 -15 -24 -50 -28 -79 -9 -31 20 -35 20 -35 -3 0 -41 100 -50 143 -13 36
32 10 102 -39 102 -43 0 -65 12 -62 34 2 17 10 21 38 20 19 0 43 -4 53 -8 24
-11 23 20 -2 34 -36 19 -90 12 -117 -15z"/>
<path d="M8612 4388 c3 -89 5 -103 21 -106 15 -3 17 6 17 90 0 89 -8 118 -32
118 -5 0 -7 -46 -6 -102z"/>
<path d="M8730 4483 c-18 -7 -30 -23 -30 -41 0 -10 5 -9 22 2 36 25 98 18 98
-10 0 -8 -12 -19 -27 -25 -89 -35 -93 -38 -93 -67 0 -55 23 -67 118 -64 l42 2
0 83 c0 53 -5 90 -13 101 -14 19 -89 31 -117 19z m88 -140 c-2 -31 -7 -39 -26
-41 -26 -4 -52 13 -52 34 0 14 45 43 68 44 9 0 12 -12 10 -37z"/>
<path d="M1639 4211 c-65 -66 -5 -170 81 -140 30 11 60 53 60 85 0 23 -64 84
-90 84 -12 0 -35 -13 -51 -29z"/>
<path d="M4772 4139 c-52 -26 -75 -66 -75 -134 -1 -92 48 -145 135 -145 81 0
138 61 138 147 0 112 -102 181 -198 132z m88 -49 c10 -5 24 -26 30 -45 21 -64
-9 -125 -61 -125 -42 0 -63 37 -57 101 7 67 41 94 88 69z"/>
<path d="M5593 4145 c-36 -15 -53 -42 -53 -83 0 -34 29 -63 83 -86 28 -11 38
-21 35 -33 -3 -15 -13 -18 -61 -16 -56 2 -57 2 -57 -26 0 -34 14 -41 80 -41
85 0 135 65 100 131 -6 10 -33 30 -60 44 -28 14 -50 29 -50 34 0 20 30 33 61
26 22 -5 34 -3 40 6 14 23 10 35 -16 47 -33 15 -62 15 -102 -3z"/>
<path d="M4442 4008 l3 -143 30 0 c26 0 30 4 33 30 4 49 12 75 22 75 5 0 21
-24 37 -52 25 -48 32 -53 66 -56 22 -2 37 1 37 8 0 6 -18 41 -40 77 -22 37
-40 72 -40 78 0 6 18 36 40 65 22 29 40 55 40 57 0 2 -18 3 -40 3 -36 0 -44
-4 -72 -45 -18 -25 -35 -45 -40 -45 -4 0 -8 20 -8 45 0 45 0 45 -35 45 l-36 0
3 -142z"/>
<path d="M5035 4078 c-4 -40 -7 -104 -8 -143 l-2 -70 30 0 30 0 3 70 c3 80 17
106 27 52 28 -145 76 -167 110 -49 10 31 20 64 23 72 3 8 10 -21 16 -65 11
-80 11 -80 41 -80 l30 0 -2 100 c-2 55 -5 119 -9 143 l-5 43 -42 -3 -42 -3
-24 -72 c-13 -40 -27 -73 -31 -73 -4 0 -16 33 -27 73 l-19 72 -46 3 -46 3 -7
-73z"/>
<path d="M5404 4137 c-2 -7 -3 -71 -2 -143 l3 -129 33 -3 c35 -4 35 -4 34 128
-2 177 1 160 -32 160 -17 0 -33 -6 -36 -13z"/>
<path d="M5857 4143 c-11 -19 -77 -243 -77 -263 0 -18 5 -21 32 -18 26 2 33 9
43 38 10 29 17 36 44 38 29 3 33 0 48 -37 14 -37 20 -41 50 -41 21 0 33 5 33
14 0 16 -67 234 -79 256 -9 16 -86 27 -94 13z m57 -105 c10 -38 7 -48 -14 -48
-11 0 -20 6 -20 13 0 23 12 57 20 57 4 0 10 -10 14 -22z"/>
<path d="M6090 4004 l0 -145 33 3 c31 3 32 4 35 56 3 48 5 53 25 50 16 -2 25
-13 32 -43 14 -56 22 -65 57 -65 29 0 30 1 25 34 -3 19 -13 51 -22 70 -16 34
-16 36 4 62 28 36 26 60 -8 95 -27 27 -35 29 -105 29 l-76 0 0 -146z m128 63
c3 -21 -2 -29 -20 -36 -31 -12 -38 -6 -38 35 0 33 2 35 28 32 21 -2 28 -9 30
-31z"/>
<path d="M6360 4004 l0 -145 33 3 32 3 3 120 c4 152 0 165 -38 165 l-30 0 0
-146z"/>
<path d="M6531 4043 c-18 -59 -36 -118 -42 -131 -17 -42 -12 -54 22 -50 18 2
36 11 40 21 5 9 13 25 18 35 5 11 20 17 41 17 29 0 35 -4 45 -35 10 -30 16
-35 48 -38 26 -2 37 1 36 10 0 7 -19 72 -43 143 l-42 130 -45 3 -46 3 -32
-108z m89 -18 c0 -22 -5 -35 -13 -35 -22 0 -26 10 -15 41 14 40 28 37 28 -6z"/>
<path d="M6740 4120 c0 -28 3 -30 35 -30 l34 0 3 -112 3 -113 32 -3 32 -3 3
113 3 113 38 3 c34 3 37 6 37 33 l0 29 -110 0 -110 0 0 -30z"/>
<path d="M7120 4034 c0 -114 0 -116 29 -145 24 -23 38 -29 75 -29 101 0 126
38 126 189 l0 101 -35 0 -35 0 0 -103 c0 -112 -6 -127 -52 -127 -23 0 -29 6
-37 38 -6 20 -11 72 -11 115 l0 77 -30 0 -30 0 0 -116z"/>
<path d="M7424 4137 c-2 -7 -3 -71 -2 -143 l3 -129 30 0 30 0 5 85 5 85 48
-87 c46 -84 50 -88 83 -88 l34 0 0 145 0 145 -30 0 -30 0 0 -75 c0 -80 -10
-94 -30 -45 -7 16 -25 50 -41 75 -25 40 -33 45 -64 45 -20 0 -38 -6 -41 -13z"/>
<path d="M7737 4143 c-11 -10 -8 -164 3 -205 15 -52 52 -78 110 -78 92 0 124
54 118 200 l-3 85 -32 3 -33 3 0 -96 c0 -111 -9 -135 -49 -135 -39 0 -51 33
-51 140 l0 90 -28 0 c-16 0 -32 -3 -35 -7z"/>
<path d="M8130 4143 c-65 -21 -101 -70 -102 -137 -2 -88 61 -146 157 -146 94
0 95 1 95 92 l0 79 -52 -3 c-47 -3 -53 -6 -56 -26 -3 -17 2 -25 17 -29 14 -3
21 -13 21 -29 0 -35 -52 -33 -85 2 -63 68 -3 160 96 147 32 -5 38 -2 44 17 5
15 2 26 -6 31 -15 9 -104 11 -129 2z"/>
<path d="M8346 4135 c-9 -25 -7 -248 3 -263 5 -8 21 -12 37 -10 l29 3 0 140 0
140 -31 3 c-22 2 -33 -2 -38 -13z"/>
<path d="M8492 4008 l3 -143 30 0 c29 0 30 1 33 53 3 48 5 53 25 50 16 -2 25
-13 32 -43 14 -56 22 -65 57 -65 29 0 30 1 25 34 -3 19 -13 51 -22 70 -16 34
-16 36 4 62 28 36 26 60 -8 95 -27 27 -35 29 -106 29 l-76 0 3 -142z m126 59
c3 -21 -2 -29 -20 -36 -31 -12 -38 -6 -38 35 0 33 2 35 28 32 21 -2 28 -9 30
-31z"/>
<path d="M8760 4005 l0 -146 33 3 32 3 0 140 0 140 -32 3 -33 3 0 -146z"/>
<path d="M3284 3966 c-57 -48 -20 -146 55 -146 60 0 104 85 68 131 -33 43 -84
49 -123 15z"/>
</g>
</svg>
